{
    "asset" : {
        "generator" : "Khronos glTF Blender I/O v3.4.49",
        "version" : "2.0"
    },
    "extensionsUsed" : [
        "KHR_materials_clearcoat",
        "KHR_materials_specular",
        "KHR_materials_ior"
    ],
    "scene" : 0,
    "scenes" : [
        {
            "name" : "Scene",
            "nodes" : [
                0,
                1,
                2
            ]
        }
    ],
    "nodes" : [
        {
            "mesh" : 0,
            "name" : "Cylinder",
            "translation" : [
                0,
                -2.3644509315490723,
                0
            ]
        },
        {
            "mesh" : 1,
            "name" : "Cylinder.001",
            "translation" : [
                0,
                -2.3644509315490723,
                0
            ]
        },
        {
            "mesh" : 2,
            "name" : "Cylinder.002",
            "scale" : [
                0.6067240834236145,
                0.6067240834236145,
                0.6067240834236145
            ],
            "translation" : [
                0,
                3.4681408405303955,
                0
            ]
        }
    ],
    "materials" : [
        {
            "doubleSided" : true,
            "name" : "Material.001",
            "pbrMetallicRoughness" : {
                "baseColorFactor" : [
                    0.8000000715255737,
                    0.09919151663780212,
                    0.03576046600937843,
                    1
                ],
                "metallicFactor" : 0,
                "roughnessFactor" : 0.5
            }
        },
        {
            "doubleSided" : true,
            "name" : "Material.002",
            "pbrMetallicRoughness" : {
                "baseColorFactor" : [
                    0.8000000715255737,
                    0.6817846894264221,
                    0.16726964712142944,
                    1
                ],
                "metallicFactor" : 0,
                "roughnessFactor" : 0.5
            }
        },
        {
            "doubleSided" : true,
            "extensions" : {
                "KHR_materials_clearcoat" : {
                    "clearcoatFactor" : 0.3755868375301361,
                    "clearcoatRoughnessFactor" : 0.21779343485832214
                },
                "KHR_materials_specular" : {
                    "specularColorFactor" : [
                        1.185678807220699,
                        1.185678807220699,
                        1.185678807220699
                    ]
                },
                "KHR_materials_ior" : {
                    "ior" : 1.4500000476837158
                }
            },
            "name" : "Material.003",
            "pbrMetallicRoughness" : {
                "baseColorFactor" : [
                    0.3383438289165497,
                    0.3383438289165497,
                    0.3383438289165497,
                    1
                ],
                "metallicFactor" : 0.32863849401474,
                "roughnessFactor" : 0.1619718372821808
            }
        }
    ],
    "meshes" : [
        {
            "name" : "Cylinder",
            "primitives" : [
                {
                    "attributes" : {
                        "POSITION" : 0,
                        "TEXCOORD_0" : 1,
                        "NORMAL" : 2
                    },
                    "indices" : 3,
                    "material" : 0
                }
            ]
        },
        {
            "name" : "Cylinder.001",
            "primitives" : [
                {
                    "attributes" : {
                        "POSITION" : 4,
                        "TEXCOORD_0" : 5,
                        "NORMAL" : 6
                    },
                    "indices" : 7,
                    "material" : 1
                }
            ]
        },
        {
            "name" : "Cylinder.002",
            "primitives" : [
                {
                    "attributes" : {
                        "POSITION" : 8,
                        "TEXCOORD_0" : 9,
                        "NORMAL" : 10
                    },
                    "indices" : 11,
                    "material" : 2
                }
            ]
        }
    ],
    "accessors" : [
        {
            "bufferView" : 0,
            "componentType" : 5126,
            "count" : 465,
            "max" : [
                1,
                5.224034309387207,
                1
            ],
            "min" : [
                -1,
                -1,
                -1
            ],
            "type" : "VEC3"
        },
        {
            "bufferView" : 1,
            "componentType" : 5126,
            "count" : 465,
            "type" : "VEC2"
        },
        {
            "bufferView" : 2,
            "componentType" : 5126,
            "count" : 465,
            "type" : "VEC3"
        },
        {
            "bufferView" : 3,
            "componentType" : 5123,
            "count" : 2304,
            "type" : "SCALAR"
        },
        {
            "bufferView" : 4,
            "componentType" : 5126,
            "count" : 779,
            "max" : [
                1,
                -1,
                1
            ],
            "min" : [
                -1,
                -1.8869445323944092,
                -1
            ],
            "type" : "VEC3"
        },
        {
            "bufferView" : 5,
            "componentType" : 5126,
            "count" : 779,
            "type" : "VEC2"
        },
        {
            "bufferView" : 6,
            "componentType" : 5126,
            "count" : 779,
            "type" : "VEC3"
        },
        {
            "bufferView" : 7,
            "componentType" : 5123,
            "count" : 2010,
            "type" : "SCALAR"
        },
        {
            "bufferView" : 8,
            "componentType" : 5126,
            "count" : 713,
            "max" : [
                1,
                0.5564900636672974,
                1
            ],
            "min" : [
                -1,
                -1,
                -1
            ],
            "type" : "VEC3"
        },
        {
            "bufferView" : 9,
            "componentType" : 5126,
            "count" : 713,
            "type" : "VEC2"
        },
        {
            "bufferView" : 10,
            "componentType" : 5126,
            "count" : 713,
            "type" : "VEC3"
        },
        {
            "bufferView" : 11,
            "componentType" : 5123,
            "count" : 2292,
            "type" : "SCALAR"
        }
    ],
    "bufferViews" : [
        {
            "buffer" : 0,
            "byteLength" : 5580,
            "byteOffset" : 0,
            "target" : 34962
        },
        {
            "buffer" : 0,
            "byteLength" : 3720,
            "byteOffset" : 5580,
            "target" : 34962
        },
        {
            "buffer" : 0,
            "byteLength" : 5580,
            "byteOffset" : 9300,
            "target" : 34962
        },
        {
            "buffer" : 0,
            "byteLength" : 4608,
            "byteOffset" : 14880,
            "target" : 34963
        },
        {
            "buffer" : 0,
            "byteLength" : 9348,
            "byteOffset" : 19488,
            "target" : 34962
        },
        {
            "buffer" : 0,
            "byteLength" : 6232,
            "byteOffset" : 28836,
            "target" : 34962
        },
        {
            "buffer" : 0,
            "byteLength" : 9348,
            "byteOffset" : 35068,
            "target" : 34962
        },
        {
            "buffer" : 0,
            "byteLength" : 4020,
            "byteOffset" : 44416,
            "target" : 34963
        },
        {
            "buffer" : 0,
            "byteLength" : 8556,
            "byteOffset" : 48436,
            "target" : 34962
        },
        {
            "buffer" : 0,
            "byteLength" : 5704,
            "byteOffset" : 56992,
            "target" : 34962
        },
        {
            "buffer" : 0,
            "byteLength" : 8556,
            "byteOffset" : 62696,
            "target" : 34962
        },
        {
            "buffer" : 0,
            "byteLength" : 4584,
            "byteOffset" : 71252,
            "target" : 34963
        }
    ],
    "buffers" : [
        {
            "byteLength" : 75836,
            "uri" : "data:application/octet-stream;base64,"
        }
    ]
}
